<?xml version="1.0" standalone="no"?>
<!DOCTYPE svg PUBLIC "-//W3C//DTD SVG 20010904//EN"
 "http://www.w3.org/TR/2001/REC-SVG-20010904/DTD/svg10.dtd">
<svg version="1.0" xmlns="http://www.w3.org/2000/svg"
 width="500.000000pt" height="500.000000pt" viewBox="0 0 500.000000 500.000000"
 preserveAspectRatio="xMidYMid meet">
<metadata>
Created by potrace 1.14, written by Peter Selinger 2001-2017
</metadata>
<g transform="translate(0.000000,500.000000) scale(0.100000,-0.100000)"
fill="#000000" stroke="none">
<path d="M669 4323 c-15 -142 -18 -346 -7 -423 29 -201 62 -326 115 -439 19
-42 39 -85 44 -96 5 -11 26 -48 48 -82 27 -42 36 -64 28 -72 -10 -10 31 -56
127 -139 34 -31 36 -35 22 -50 -8 -10 -27 -46 -42 -82 -16 -36 -32 -69 -36
-75 -91 -117 -146 -180 -172 -196 -17 -10 -26 -19 -19 -19 7 0 10 -7 7 -15 -4
-8 -12 -15 -19 -15 -7 0 -19 -8 -26 -17 -12 -15 -12 -16 6 -10 11 4 -2 -13
-30 -38 -41 -36 -45 -43 -25 -38 l25 6 -22 -22 c-12 -11 -27 -21 -33 -21 -5 0
-10 -4 -10 -8 0 -5 -12 -15 -27 -22 -18 -8 -23 -14 -14 -18 9 -3 5 -11 -15
-29 l-29 -24 33 6 c43 9 40 -3 -14 -47 -37 -31 -42 -38 -24 -38 12 0 30 5 42
11 32 17 32 3 0 -44 l-31 -44 39 11 c41 10 65 2 40 -15 -11 -7 2 -9 41 -7 38
2 55 -1 52 -8 -2 -6 -9 -11 -16 -11 -7 0 -30 -8 -52 -17 l-40 -18 65 -21 c36
-12 67 -22 69 -24 3 -2 -6 -15 -20 -29 l-24 -25 51 6 c47 7 57 4 117 -30 49
-27 74 -35 97 -32 17 3 28 1 24 -4 -3 -5 0 -9 7 -9 7 0 4 -6 -7 -14 -16 -12
-16 -15 -4 -19 8 -3 35 -11 59 -18 24 -7 71 -34 105 -59 33 -26 77 -55 96 -65
19 -10 49 -28 65 -41 17 -12 50 -28 75 -35 59 -16 65 -22 47 -50 -9 -13 -18
-50 -21 -82 -5 -59 -15 -80 -51 -107 -38 -27 -128 -120 -123 -125 3 -3 17 -1
32 5 22 8 25 7 19 -4 -14 -24 -68 -81 -93 -99 l-24 -17 24 0 25 -1 -27 -24
c-35 -30 -35 -37 -3 -25 35 13 33 -9 -5 -52 -16 -18 -43 -49 -60 -68 -17 -19
-36 -44 -42 -54 -9 -16 -8 -18 8 -12 34 13 39 11 40 -17 1 -35 15 -49 51 -53
15 -2 34 -12 43 -23 8 -11 28 -23 44 -27 16 -4 31 -14 33 -23 4 -16 128 -94
200 -126 25 -11 43 -27 50 -45 16 -43 75 -82 130 -85 26 -2 57 1 70 6 18 7 25
5 30 -6 10 -28 66 -48 141 -51 40 -2 104 -13 140 -23 37 -11 90 -23 117 -27
93 -12 614 -5 680 10 11 2 33 9 48 15 16 6 33 9 38 5 5 -3 9 -1 9 4 0 5 6 9
13 9 154 9 199 20 217 53 6 11 14 19 18 16 4 -2 25 -7 46 -10 68 -11 145 25
167 77 9 21 38 41 119 83 59 30 125 70 146 89 22 18 48 42 60 52 11 10 29 19
39 21 10 2 29 11 42 19 12 8 23 12 23 7 0 -10 29 28 30 39 0 5 -5 5 -12 1 -7
-5 -8 -3 -4 5 5 7 14 10 22 7 27 -10 11 21 -57 113 -13 18 -19 36 -15 47 4 11
-1 25 -14 39 -14 15 -18 25 -10 30 6 4 -9 26 -40 57 -53 53 -59 65 -35 70 11
2 -10 30 -65 87 -44 46 -78 86 -77 88 2 2 -2 36 -9 76 -6 39 -10 75 -8 78 2 4
50 30 106 59 56 29 113 60 127 69 14 10 46 31 71 47 47 29 94 64 120 88 8 7
32 16 53 19 21 3 52 13 70 23 18 9 43 18 57 20 58 9 64 11 68 22 2 7 -1 12 -7
12 -6 0 -11 7 -11 16 0 9 6 14 13 11 6 -3 31 6 54 19 43 25 62 24 98 -5 18
-15 19 -15 6 1 -11 15 -11 20 2 32 8 8 18 12 22 8 4 -4 5 6 1 22 -4 17 -15 35
-24 42 -14 11 -9 12 31 10 26 -1 50 1 53 6 3 5 10 6 15 3 5 -4 9 -1 9 5 0 6
-6 10 -12 8 -24 -4 -56 13 -72 37 -13 20 -14 25 -3 25 8 0 17 -3 21 -7 4 -4
21 -8 39 -9 18 0 51 -10 74 -21 36 -18 41 -18 34 -5 -5 10 -19 25 -30 34 -12
10 -21 24 -21 31 0 19 52 15 85 -7 28 -18 28 -18 22 3 -6 23 4 26 34 11 24
-13 24 0 1 31 -10 13 -23 35 -29 49 -6 14 -34 51 -62 82 -28 31 -51 59 -51 62
0 12 23 6 51 -15 58 -41 27 0 -41 55 -38 31 -70 59 -70 63 0 3 12 2 28 -2 32
-8 29 -4 -53 62 -75 59 -218 212 -267 284 -25 37 -38 70 -43 104 -5 46 -2 58
34 125 141 263 186 388 219 615 22 146 24 399 4 448 -12 28 -14 29 -65 21 -28
-4 -68 -8 -87 -10 -19 -2 -60 -6 -90 -9 -30 -3 -68 -6 -84 -6 -15 0 -41 -6
-57 -15 -16 -8 -34 -12 -39 -9 -5 3 -35 -6 -66 -20 -41 -19 -60 -23 -69 -15
-9 8 -15 8 -20 0 -9 -14 -66 -43 -90 -45 -11 0 -34 -9 -52 -18 -18 -9 -40 -17
-49 -17 -10 0 -37 -12 -61 -26 -25 -14 -51 -23 -59 -20 -9 3 -36 -8 -60 -25
-25 -17 -48 -28 -51 -25 -4 3 -26 -5 -49 -19 -24 -14 -47 -24 -52 -23 -4 2
-25 -6 -46 -17 -37 -20 -38 -20 -51 -1 -12 16 -17 17 -30 6 -12 -10 -19 -10
-27 -2 -6 6 -24 8 -40 5 -28 -6 -29 -5 -16 21 15 35 -1 48 -46 35 -45 -13 -59
-11 -52 6 7 19 1 19 -29 -1 -15 -10 -25 -12 -25 -5 0 6 -5 10 -12 9 -7 -2 -13
3 -14 10 -3 25 -5 27 -12 14 -16 -24 -49 -22 -61 4 l-11 25 -28 -33 -29 -32
-23 22 c-13 12 -26 18 -29 14 -12 -17 -53 -11 -58 9 -6 23 -4 23 -39 4 -22
-11 -30 -12 -36 -2 -5 9 -14 8 -36 -5 -27 -16 -29 -16 -42 2 -13 17 -15 18
-26 2 -10 -14 -14 -14 -28 -3 -14 12 -19 11 -35 -3 -17 -15 -19 -15 -36 4 -24
26 -33 25 -41 -4 -7 -29 -30 -41 -38 -20 -8 21 -33 17 -39 -6 -6 -23 -27 -19
-65 14 -13 12 -25 20 -28 19 -2 -2 -3 -4 -2 -5 1 -2 -4 -14 -11 -26 l-13 -24
-14 21 c-19 27 -38 27 -31 1 6 -24 -15 -27 -37 -5 -21 22 -29 18 -24 -10 3
-14 4 -25 3 -25 -1 0 -18 6 -36 14 -19 7 -46 16 -61 20 -25 6 -26 4 -21 -26 5
-33 5 -33 -16 -14 -21 19 -21 19 -21 -6 0 -37 -9 -40 -47 -17 -32 20 -33 20
-33 1 0 -29 -9 -32 -42 -14 -22 13 -32 14 -35 5 -3 -8 -21 1 -50 23 -31 24
-53 34 -67 30 -12 -3 -32 4 -51 18 -35 26 -65 40 -82 37 -6 -1 -43 14 -81 34
-39 19 -78 35 -86 35 -9 0 -39 11 -68 25 -28 14 -59 25 -67 25 -9 0 -36 6 -61
14 -90 29 -136 40 -177 42 -23 2 -50 7 -60 12 -10 5 -48 10 -85 11 -37 1 -79
6 -93 11 -32 12 -35 12 -36 3z"/>
</g>
</svg>
